<svg width="31" height="44" viewBox="0 0 31 44" fill="none" xmlns="http://www.w3.org/2000/svg">
<g filter="url(#filter0_d_337_726)">
<path d="M26.2306 4.56755L17.2248 0.996426L7.6284 17.4447L12.2953 19.2953C12.3876 19.3364 12.4695 19.3984 12.5357 19.4772C12.6019 19.556 12.6511 19.6501 12.6801 19.7533C12.7092 19.8566 12.7175 19.9669 12.7045 20.0774C12.6916 20.1878 12.6576 20.296 12.6048 20.3951L4.60505 35.1979L22.3264 21.1163L17.7785 19.3129C17.6815 19.272 17.5957 19.208 17.5273 19.1253C17.4589 19.0426 17.4095 18.9433 17.3825 18.8344C17.3556 18.7256 17.3519 18.6098 17.3715 18.4952C17.3912 18.3807 17.4338 18.2702 17.4963 18.1715L26.2306 4.56755Z" fill="#00196E"/>
</g>
<defs>
<filter id="filter0_d_337_726" x="0.605469" y="0.996582" width="29.625" height="42.2012" filterUnits="userSpaceOnUse" color-interpolation-filters="sRGB">
<feFlood flood-opacity="0" result="BackgroundImageFix"/>
<feColorMatrix in="SourceAlpha" type="matrix" values="0 0 0 0 0 0 0 0 0 0 0 0 0 0 0 0 0 0 127 0" result="hardAlpha"/>
<feOffset dy="4"/>
<feGaussianBlur stdDeviation="2"/>
<feComposite in2="hardAlpha" operator="out"/>
<feColorMatrix type="matrix" values="0 0 0 0 0 0 0 0 0 0 0 0 0 0 0 0 0 0 0.25 0"/>
<feBlend mode="normal" in2="BackgroundImageFix" result="effect1_dropShadow_337_726"/>
<feBlend mode="normal" in="SourceGraphic" in2="effect1_dropShadow_337_726" result="shape"/>
</filter>
</defs>
</svg>
