<svg width="23" height="36" viewBox="0 0 23 36" fill="none" xmlns="http://www.w3.org/2000/svg">
<path d="M22.2306 4.56755L13.2248 0.996426L3.6284 17.4447L8.29534 19.2953C8.38763 19.3364 8.46946 19.3984 8.53568 19.4772C8.6019 19.556 8.65108 19.6501 8.68014 19.7533C8.7092 19.8566 8.71751 19.9669 8.70455 20.0774C8.69158 20.1878 8.65762 20.296 8.60481 20.3951L0.605051 35.1979L18.3264 21.1163L13.7785 19.3129C13.6815 19.272 13.5957 19.208 13.5273 19.1253C13.4589 19.0426 13.4095 18.9433 13.3825 18.8344C13.3556 18.7256 13.3519 18.6098 13.3715 18.4952C13.3912 18.3807 13.4338 18.2702 13.4963 18.1715L22.2306 4.56755Z" fill="#00196E"/>
</svg>
