<svg width="37" height="37" viewBox="0 0 37 37" fill="none" xmlns="http://www.w3.org/2000/svg">
<path d="M31.4501 22.1998V19.4248C31.4499 19.2483 31.4054 19.0746 31.3206 18.9198C31.2463 18.7966 31.1349 18.7001 31.0024 18.6441C30.8636 18.5857 30.7172 18.5471 30.5676 18.5294C30.4099 18.5097 30.2511 18.4998 30.0922 18.4998H29.6001V9.46626C29.6574 9.34046 29.7407 9.19246 29.8461 9.01856C29.9516 8.84466 30.0533 8.65226 30.1495 8.44136C30.2457 8.22861 30.3327 8.03066 30.4085 7.84936C30.4758 7.70835 30.5153 7.55574 30.5251 7.39981C30.4977 7.19934 30.4544 7.00138 30.3956 6.80781C30.3094 6.50052 30.2125 6.19631 30.1051 5.89576C29.9959 5.58679 29.8849 5.27845 29.7721 4.97076C29.6937 4.76164 29.6221 4.55001 29.5575 4.33621C29.487 4.15263 29.3665 3.99243 29.2097 3.87371C29.0558 3.75801 28.8677 3.69683 28.6751 3.69981H24.9751C24.7775 3.70798 24.5865 3.77355 24.4256 3.88851C24.2675 3.99608 24.1502 4.1538 24.0926 4.33621C24.0191 4.55392 23.942 4.7704 23.8614 4.98556C23.75 5.29184 23.6445 5.60023 23.545 5.91056C23.4377 6.23801 23.3415 6.54141 23.2546 6.82261C23.1676 7.10011 23.1251 7.29436 23.1251 7.39981C23.1251 7.53486 23.1621 7.68841 23.2416 7.86231C23.3175 8.03621 23.4081 8.22861 23.5154 8.44136C23.6875 8.78619 23.8657 9.12788 24.0501 9.46626V18.4998H23.558C23.3941 18.499 23.2303 18.5089 23.0677 18.5294C22.9165 18.5474 22.7694 18.5912 22.633 18.6589C22.5053 18.7208 22.3962 18.8152 22.3166 18.9327C22.2306 19.0819 22.1901 19.2529 22.2001 19.4248V22.1998H31.4501ZM31.4501 24.0498H22.2001V28.7766C22.2001 29.4019 22.3259 29.9902 22.5756 30.5396C22.8272 31.0891 23.1639 31.5701 23.5876 31.9845C24.4522 32.8309 25.6151 33.3034 26.8251 33.2998C27.4411 33.2998 28.0294 33.1796 28.5881 32.9391C29.1336 32.7067 29.633 32.3784 30.0626 31.9697C30.4897 31.5633 30.8334 31.0776 31.0745 30.5396C31.3259 29.986 31.454 29.3845 31.4501 28.7766V24.0498ZM10.6931 3.93291C10.8186 4.01776 10.9214 4.13215 10.9923 4.26602C11.0633 4.39989 11.1003 4.54914 11.1001 4.70066V11.0961C11.1001 11.5868 11.295 12.0573 11.6419 12.4043C11.9889 12.7512 12.4594 12.9461 12.9501 12.9461C13.4407 12.9461 13.9113 12.7512 14.2582 12.4043C14.6052 12.0573 14.8001 11.5868 14.8001 11.0961V4.70066C14.8002 4.54916 14.8375 4.4 14.9087 4.26629C14.98 4.13258 15.0829 4.01841 15.2086 3.93383C15.3343 3.84924 15.4789 3.79682 15.6296 3.78118C15.7803 3.76554 15.9325 3.78715 16.0729 3.84411C17.5601 4.44612 18.8418 5.46498 19.7637 6.77815C20.6856 8.09131 21.2084 9.64286 21.2694 11.2462C21.3304 12.8495 20.9269 14.4362 20.1074 15.8156C19.2879 17.195 18.0873 18.3083 16.6501 19.0215V29.5961C16.6501 30.5774 16.2603 31.5185 15.5664 32.2124C14.8725 32.9063 13.9314 33.2961 12.9501 33.2961C11.9688 33.2961 11.0277 32.9063 10.3338 32.2124C9.6399 31.5185 9.25008 30.5774 9.25008 29.5961V19.0215C7.81219 18.3088 6.61094 17.1958 5.79093 15.8163C4.97092 14.4368 4.5671 12.8497 4.62809 11.2461C4.68907 9.64241 5.21227 8.09057 6.13468 6.77735C7.0571 5.46413 8.33942 4.44551 9.82728 3.84411C9.96755 3.78706 10.1197 3.76533 10.2703 3.78081C10.421 3.79629 10.5655 3.84852 10.6912 3.93291H10.6931Z" fill="#00196E"/>
</svg>
