<svg width="82" height="82" viewBox="0 0 82 82" fill="none" xmlns="http://www.w3.org/2000/svg">
<path d="M44.4163 37.5832C45.3225 37.5832 46.1915 37.9431 46.8323 38.5839C47.473 39.2246 47.833 40.0937 47.833 40.9998C47.833 41.906 47.473 42.775 46.8323 43.4158C46.1915 44.0565 45.3225 44.4165 44.4163 44.4165C43.5102 44.4165 42.6411 44.0565 42.0004 43.4158C41.3596 42.775 40.9997 41.906 40.9997 40.9998C40.9997 40.0937 41.3596 39.2246 42.0004 38.5839C42.6411 37.9431 43.5102 37.5832 44.4163 37.5832ZM26.8547 21.354C29.093 18.9302 31.8088 16.9959 34.8312 15.6728C37.8536 14.3498 41.1171 13.6667 44.4163 13.6665C56.3747 13.6665 66.4197 22.584 68.0938 34.1665H75.1663V40.9998H54.6663C54.6663 38.2814 53.5864 35.6742 51.6642 33.752C49.7419 31.8297 47.1348 30.7498 44.4163 30.7498C41.6979 30.7498 39.0907 31.8297 37.1685 33.752C35.2462 35.6742 34.1663 38.2814 34.1663 40.9998H6.83301V34.1665H7.00384C7.68717 26.4107 10.728 19.3382 15.3747 13.6665L26.8547 21.354ZM22.9938 26.9573L17.288 23.1307C15.4772 26.479 14.2813 30.2032 13.8713 34.1665H20.7388C21.1147 31.604 21.8663 29.1782 22.9938 26.9573ZM25.283 52.6165L20.4997 47.8332H40.2822C41.1022 49.2682 42.708 50.2248 44.4163 50.2248C46.1247 50.2248 47.7305 49.2682 48.5505 47.8332H68.333V52.6165C62.8322 49.2682 63.0713 53.8123 63.0713 53.8123V60.509L56.3747 67.2057C54.6663 61.2265 51.5913 64.5748 51.5913 64.5748L46.808 69.3582H37.2413C40.5897 63.8573 36.0455 64.0965 36.0455 64.0965H29.3488L22.6522 57.3998C28.6313 55.7257 25.283 52.6165 25.283 52.6165Z" fill="#00196E"/>
</svg>
