<svg width="36" height="36" viewBox="0 0 36 36" fill="none" xmlns="http://www.w3.org/2000/svg">
<path d="M10.5 16.6C9.69894 16.6 8.90572 16.4422 8.16563 16.1357C7.42554 15.8291 6.75309 15.3798 6.18665 14.8134C5.62021 14.2469 5.17089 13.5745 4.86433 12.8344C4.55778 12.0943 4.4 11.3011 4.4 10.5C4.4 9.69894 4.55778 8.90572 4.86433 8.16563C5.17089 7.42554 5.62021 6.75309 6.18665 6.18665C6.75309 5.62021 7.42554 5.17089 8.16563 4.86433C8.90572 4.55778 9.69894 4.4 10.5 4.4C12.1178 4.4 13.6694 5.04268 14.8134 6.18665C15.9573 7.33062 16.6 8.88218 16.6 10.5C16.6 12.1178 15.9573 13.6694 14.8134 14.8134C13.6694 15.9573 12.1178 16.6 10.5 16.6ZM10.5 31.6C8.88218 31.6 7.33062 30.9573 6.18665 29.8134C5.04268 28.6694 4.4 27.1178 4.4 25.5C4.4 23.8822 5.04268 22.3306 6.18665 21.1866C7.33062 20.0427 8.88218 19.4 10.5 19.4C12.1178 19.4 13.6694 20.0427 14.8134 21.1866C15.9573 22.3306 16.6 23.8822 16.6 25.5C16.6 27.1178 15.9573 28.6694 14.8134 29.8134C13.6694 30.9573 12.1178 31.6 10.5 31.6ZM25.5 16.6C24.6989 16.6 23.9057 16.4422 23.1656 16.1357C22.4255 15.8291 21.7531 15.3798 21.1866 14.8134C20.6202 14.2469 20.1709 13.5745 19.8643 12.8344C19.5578 12.0943 19.4 11.3011 19.4 10.5C19.4 9.69894 19.5578 8.90572 19.8643 8.16563C20.1709 7.42555 20.6202 6.75309 21.1866 6.18665C21.7531 5.62021 22.4255 5.17089 23.1656 4.86434L22.9169 4.26381L23.1656 4.86433C23.9057 4.55778 24.6989 4.4 25.5 4.4C27.1178 4.4 28.6694 5.04268 29.8134 6.18665C30.9573 7.33062 31.6 8.88218 31.6 10.5C31.6 12.1178 30.9573 13.6694 29.8134 14.8134C28.6694 15.9573 27.1178 16.6 25.5 16.6ZM21.1866 29.8134C20.0427 28.6694 19.4 27.1178 19.4 25.5C19.4 23.8822 20.0427 22.3306 21.1866 21.1866C22.3306 20.0427 23.8822 19.4 25.5 19.4C27.1178 19.4 28.6694 20.0427 29.8134 21.1866C30.9573 22.3306 31.6 23.8822 31.6 25.5C31.6 27.1178 30.9573 28.6694 29.8134 29.8134C28.6694 30.9573 27.1178 31.6 25.5 31.6C23.8822 31.6 22.3306 30.9573 21.1866 29.8134Z" fill="#00196E" stroke="#F1F3F6" stroke-width="1.3"/>
</svg>
