<svg width="93" height="91" viewBox="0 0 93 91" fill="none" xmlns="http://www.w3.org/2000/svg">
	<rect width="92.0498" height="90.964" rx="12" fill="#F1F3F6"/>
	<path fill-rule="evenodd" clip-rule="evenodd" d="M36.25 31C35.0234 31 33.847 31.5268 32.9796 32.4645C32.1123 33.4021 31.625 34.6739 31.625 36V56C31.625 57.3261 32.1123 58.5979 32.9796 59.5355C33.847 60.4732 35.0234 61 36.25 61H54.75C55.9766 61 57.153 60.4732 58.0204 59.5355C58.8877 58.5979 59.375 57.3261 59.375 56V36C59.375 34.6739 58.8877 33.4021 58.0204 32.4645C57.153 31.5268 55.9766 31 54.75 31H36.25ZM42.4167 39.3333C42.4167 38.8913 42.5791 38.4674 42.8682 38.1548C43.1573 37.8423 43.5495 37.6667 43.9583 37.6667H53.2083C53.6172 37.6667 54.0093 37.8423 54.2985 38.1548C54.5876 38.4674 54.75 38.8913 54.75 39.3333C54.75 39.7754 54.5876 40.1993 54.2985 40.5118C54.0093 40.8244 53.6172 41 53.2083 41H43.9583C43.5495 41 43.1573 40.8244 42.8682 40.5118C42.5791 40.1993 42.4167 39.7754 42.4167 39.3333ZM42.4167 46C42.4167 45.558 42.5791 45.134 42.8682 44.8215C43.1573 44.5089 43.5495 44.3333 43.9583 44.3333H53.2083C53.6172 44.3333 54.0093 44.5089 54.2985 44.8215C54.5876 45.134 54.75 45.558 54.75 46C54.75 46.442 54.5876 46.866 54.2985 47.1785C54.0093 47.4911 53.6172 47.6667 53.2083 47.6667H43.9583C43.5495 47.6667 43.1573 47.4911 42.8682 47.1785C42.5791 46.866 42.4167 46.442 42.4167 46ZM42.4167 52.6667C42.4167 52.2246 42.5791 51.8007 42.8682 51.4882C43.1573 51.1756 43.5495 51 43.9583 51H53.2083C53.6172 51 54.0093 51.1756 54.2985 51.4882C54.5876 51.8007 54.75 52.2246 54.75 52.6667C54.75 53.1087 54.5876 53.5326 54.2985 53.8452C54.0093 54.1577 53.6172 54.3333 53.2083 54.3333H43.9583C43.5495 54.3333 43.1573 54.1577 42.8682 53.8452C42.5791 53.5326 42.4167 53.1087 42.4167 52.6667ZM37.7917 37.6667C37.3828 37.6667 36.9907 37.8423 36.7015 38.1548C36.4124 38.4674 36.25 38.8913 36.25 39.3333C36.25 39.7754 36.4124 40.1993 36.7015 40.5118C36.9907 40.8244 37.3828 41 37.7917 41H37.7932C38.2021 41 38.5942 40.8244 38.8833 40.5118C39.1724 40.1993 39.3349 39.7754 39.3349 39.3333C39.3349 38.8913 39.1724 38.4674 38.8833 38.1548C38.5942 37.8423 38.2021 37.6667 37.7932 37.6667H37.7917ZM36.25 46C36.25 45.558 36.4124 45.134 36.7015 44.8215C36.9907 44.5089 37.3828 44.3333 37.7917 44.3333H37.7932C38.2021 44.3333 38.5942 44.5089 38.8833 44.8215C39.1724 45.134 39.3349 45.558 39.3349 46C39.3349 46.442 39.1724 46.866 38.8833 47.1785C38.5942 47.4911 38.2021 47.6667 37.7932 47.6667H37.7917C37.3828 47.6667 36.9907 47.4911 36.7015 47.1785C36.4124 46.866 36.25 46.442 36.25 46ZM37.7917 51C37.3828 51 36.9907 51.1756 36.7015 51.4882C36.4124 51.8007 36.25 52.2246 36.25 52.6667C36.25 53.1087 36.4124 53.5326 36.7015 53.8452C36.9907 54.1577 37.3828 54.3333 37.7917 54.3333H37.7932C38.2021 54.3333 38.5942 54.1577 38.8833 53.8452C39.1724 53.5326 39.3349 53.1087 39.3349 52.6667C39.3349 52.2246 39.1724 51.8007 38.8833 51.4882C38.5942 51.1756 38.2021 51 37.7932 51H37.7917Z" fill="#00196E"/>
</svg>