<svg width="24" height="24" viewBox="0 0 24 24" fill="none" xmlns="http://www.w3.org/2000/svg">
<mask id="mask0_1691_565" style="mask-type:alpha" maskUnits="userSpaceOnUse" x="0" y="0" width="24" height="24">
<rect width="24" height="24" fill="#D9D9D9"/>
</mask>
<g mask="url(#mask0_1691_565)">
<path d="M18 15V13H20C20.2833 13 20.5207 13.0957 20.712 13.287C20.904 13.479 21 13.7167 21 14C21 14.2833 20.904 14.5207 20.712 14.712C20.5207 14.904 20.2833 15 20 15H18ZM18 19V17H20C20.2833 17 20.5207 17.096 20.712 17.288C20.904 17.4793 21 17.7167 21 18C21 18.2833 20.904 18.5207 20.712 18.712C20.5207 18.904 20.2833 19 20 19H18ZM14 20C13.45 20 12.9793 19.8043 12.588 19.413C12.196 19.021 12 18.55 12 18H10V14H12C12 13.45 12.196 12.979 12.588 12.587C12.9793 12.1957 13.45 12 14 12H17V20H14ZM7 17C5.9 17 4.95833 16.6083 4.175 15.825C3.39167 15.0417 3 14.1 3 13C3 11.9 3.39167 10.9583 4.175 10.175C4.95833 9.39167 5.9 9 7 9H8.5C8.91667 9 9.27067 8.854 9.562 8.562C9.854 8.27067 10 7.91667 10 7.5C10 7.08333 9.854 6.72933 9.562 6.438C9.27067 6.146 8.91667 6 8.5 6H5C4.71667 6 4.479 5.90433 4.287 5.713C4.09567 5.521 4 5.28333 4 5C4 4.71667 4.09567 4.479 4.287 4.287C4.479 4.09567 4.71667 4 5 4H8.5C9.46667 4 10.2917 4.34167 10.975 5.025C11.6583 5.70833 12 6.53333 12 7.5C12 8.46667 11.6583 9.29167 10.975 9.975C10.2917 10.6583 9.46667 11 8.5 11H7C6.45 11 5.97933 11.1957 5.588 11.587C5.196 11.979 5 12.45 5 13C5 13.55 5.196 14.0207 5.588 14.412C5.97933 14.804 6.45 15 7 15H9V17H7Z" fill="#1F2531"/>
</g>
</svg>
