<svg width="24" height="24" viewBox="0 0 24 24" fill="none" xmlns="http://www.w3.org/2000/svg">
<path d="M20.2804 5.73454C20.2733 5.72751 18.8483 7.1361 16.0124 9.96735L14.0226 7.97751L18.2624 3.73767C16.0312 2.3947 13.1647 2.73923 11.3062 4.59782C10.5957 5.30788 10.0844 6.19225 9.82362 7.16226C9.56282 8.13226 9.56164 9.15379 9.82021 10.1244L9.8624 10.2814L3.21787 16.9236C3.07256 17.0689 3.07256 17.308 3.21787 17.4533L6.53193 20.7674C6.67725 20.9127 6.91631 20.9127 7.06162 20.7674L13.7015 14.1275L13.8585 14.1697C15.8202 14.6924 17.9272 14.1486 19.3897 12.6861C21.2507 10.8275 21.5952 7.9611 20.2804 5.73454V5.73454Z" fill="#1F2531"/>
</svg>
